<svg width="512" height="480" viewBox="0 0 512 480" fill="none" xmlns="http://www.w3.org/2000/svg">
<path d="M290.59 160C270.41 160 183.77 161.98 128 245.95V160C128 107.06 84.94 64 32 64C14.33 64 0 78.33 0 96C0 113.67 14.33 128 32 128C49.64 128 64 142.36 64 160V416C64 451.3 92.7 480 128 480H304C312.84 480 320 472.84 320 464V448C320 430.33 305.67 416 288 416H256L384 320V464C384 472.84 391.16 480 400 480H432C440.84 480 448 472.84 448 464V257.86C437.71 260.53 427.11 262.4 416 262.4C354.19 262.4 302.48 218.35 290.59 160V160ZM448 64H384L320 0V134.4C320 187.42 362.98 230.4 416 230.4C469.02 230.4 512 187.42 512 134.4V0L448 64ZM376 144C367.16 144 360 136.84 360 128C360 119.16 367.16 112 376 112C384.84 112 392 119.16 392 128C392 136.84 384.84 144 376 144ZM456 144C447.16 144 440 136.84 440 128C440 119.16 447.16 112 456 112C464.84 112 472 119.16 472 128C472 136.84 464.84 144 456 144Z" fill="#002B7F"/>
</svg>
